G04 #@! TF.FileFunction,Copper,L1,Top,Signal*
%FSLAX46Y46*%
G04 Gerber Fmt 4.6, Leading zero omitted, Abs format (unit mm)*
G04 Created by KiCad (PCBNEW no-vcs-found-product) date Thu 10 Mar 2016 11:27:30 PM EET*
%MOMM*%
G01*
G04 APERTURE LIST*
%ADD10C,0.100000*%
%ADD11C,1.501140*%
%ADD12R,2.199640X1.524000*%
%ADD13O,2.199640X1.524000*%
%ADD14R,1.524000X2.199640*%
%ADD15O,1.524000X2.199640*%
%ADD16C,1.998980*%
%ADD17C,0.400000*%
%ADD18C,0.254000*%
G04 APERTURE END LIST*
D10*
D11*
X159750000Y-68500000D03*
X159750000Y-73580000D03*
X164750000Y-68500000D03*
X164750000Y-73580000D03*
X167500000Y-68500000D03*
X167500000Y-73580000D03*
D12*
X150750000Y-94700000D03*
D13*
X150750000Y-92160000D03*
X150750000Y-89620000D03*
X150750000Y-87080000D03*
X150750000Y-84540000D03*
X150750000Y-82000000D03*
D14*
X154646000Y-64620000D03*
D15*
X157186000Y-64620000D03*
X159726000Y-64620000D03*
X162266000Y-64620000D03*
X164806000Y-64620000D03*
X167346000Y-64620000D03*
D14*
X166330000Y-112880000D03*
D16*
X154500000Y-97500000D03*
X164660000Y-97500000D03*
X172910000Y-93750000D03*
X162750000Y-93750000D03*
X154500000Y-89500000D03*
X164660000Y-89500000D03*
X172910000Y-85750000D03*
X162750000Y-85750000D03*
X154500000Y-82000000D03*
X164660000Y-82000000D03*
X172910000Y-77500000D03*
X162750000Y-77500000D03*
D17*
X159750000Y-68500000D02*
X159750000Y-69561466D01*
X159750000Y-69561466D02*
X162188534Y-72000000D01*
X162188534Y-72000000D02*
X168000000Y-72000000D01*
X168000000Y-72000000D02*
X169000000Y-73000000D01*
X169000000Y-73000000D02*
X169000000Y-89840000D01*
X169000000Y-89840000D02*
X172910000Y-93750000D01*
X159726000Y-64620000D02*
X159726000Y-68476000D01*
X159726000Y-68476000D02*
X159750000Y-68500000D01*
X164750000Y-73580000D02*
X167500000Y-73580000D01*
X159750000Y-73580000D02*
X164750000Y-73580000D01*
X154646000Y-64620000D02*
X154646000Y-68476000D01*
X154646000Y-68476000D02*
X159750000Y-73580000D01*
X148250000Y-87457820D02*
X148250000Y-92537820D01*
X148250000Y-92537820D02*
X150412180Y-94700000D01*
X150412180Y-94700000D02*
X150750000Y-94700000D01*
X148250000Y-82377820D02*
X148250000Y-87457820D01*
X148250000Y-87457820D02*
X150412180Y-89620000D01*
X150412180Y-89620000D02*
X150750000Y-89620000D01*
X154646000Y-64620000D02*
X154646000Y-66119820D01*
X154646000Y-66119820D02*
X148250000Y-72515820D01*
X148250000Y-72515820D02*
X148250000Y-82377820D01*
X148250000Y-82377820D02*
X150412180Y-84540000D01*
X150412180Y-84540000D02*
X150750000Y-84540000D01*
X154646000Y-64620000D02*
X154646000Y-64957820D01*
X170000000Y-72500000D02*
X170000000Y-81500000D01*
X170000000Y-81500000D02*
X170000000Y-82250000D01*
X172910000Y-85750000D02*
X170000000Y-82840000D01*
X170000000Y-82840000D02*
X170000000Y-81500000D01*
X168250000Y-70750000D02*
X170000000Y-72500000D01*
X165938534Y-70750000D02*
X168250000Y-70750000D01*
X164750000Y-68500000D02*
X164750000Y-69561466D01*
X164750000Y-69561466D02*
X165938534Y-70750000D01*
X164806000Y-64620000D02*
X164806000Y-68444000D01*
X164806000Y-68444000D02*
X164750000Y-68500000D01*
X167500000Y-68500000D02*
X172910000Y-73910000D01*
X172910000Y-73910000D02*
X172910000Y-77500000D01*
X167346000Y-64620000D02*
X167346000Y-68346000D01*
X167346000Y-68346000D02*
X167500000Y-68500000D01*
X159500000Y-93750000D02*
X162750000Y-93750000D01*
X159500000Y-93750000D02*
X158086508Y-93750000D01*
X158086508Y-93750000D02*
X156264328Y-95572180D01*
X156264328Y-95572180D02*
X154500000Y-95572180D01*
X154500000Y-97500000D02*
X154500000Y-95572180D01*
X154500000Y-95572180D02*
X151087820Y-92160000D01*
X151087820Y-92160000D02*
X150750000Y-92160000D01*
X159590000Y-85750000D02*
X162750000Y-85750000D01*
X159590000Y-85750000D02*
X155840000Y-89500000D01*
X155840000Y-89500000D02*
X154500000Y-89500000D01*
X150750000Y-87080000D02*
X152080000Y-87080000D01*
X152080000Y-87080000D02*
X153500511Y-88500511D01*
X153500511Y-88500511D02*
X154500000Y-89500000D01*
X160750000Y-77500000D02*
X162750000Y-77500000D01*
X154500000Y-82000000D02*
X156250000Y-82000000D01*
X156250000Y-82000000D02*
X160750000Y-77500000D01*
X150750000Y-82000000D02*
X154500000Y-82000000D01*
X164660000Y-92250000D02*
X164660000Y-112372000D01*
X164660000Y-112372000D02*
X165168000Y-112880000D01*
X165168000Y-112880000D02*
X166330000Y-112880000D01*
X164660000Y-87000000D02*
X164660000Y-92250000D01*
X164660000Y-82000000D02*
X164660000Y-87000000D01*
D18*
G36*
X153249000Y-64334250D02*
X153407750Y-64493000D01*
X154519000Y-64493000D01*
X154519000Y-64473000D01*
X154773000Y-64473000D01*
X154773000Y-64493000D01*
X154793000Y-64493000D01*
X154793000Y-64747000D01*
X154773000Y-64747000D01*
X154773000Y-66196070D01*
X154931750Y-66354820D01*
X155534309Y-66354820D01*
X155767698Y-66258147D01*
X155946327Y-66079519D01*
X156043000Y-65846130D01*
X156043000Y-65747404D01*
X156198172Y-65979635D01*
X156651391Y-66282467D01*
X157186000Y-66388807D01*
X157720609Y-66282467D01*
X158173828Y-65979635D01*
X158456000Y-65557336D01*
X158738172Y-65979635D01*
X158891000Y-66081752D01*
X158891000Y-67399718D01*
X158576056Y-67714113D01*
X158364671Y-68223184D01*
X158364190Y-68774398D01*
X158574686Y-69283837D01*
X158930719Y-69640492D01*
X158978561Y-69881007D01*
X159043745Y-69978561D01*
X159159566Y-70151900D01*
X161598100Y-72590434D01*
X161868993Y-72771439D01*
X162188534Y-72835000D01*
X163610492Y-72835000D01*
X163537069Y-72855735D01*
X163352233Y-73375034D01*
X163380195Y-73925538D01*
X163537069Y-74304265D01*
X163778070Y-74372325D01*
X164570395Y-73580000D01*
X164556253Y-73565858D01*
X164735858Y-73386253D01*
X164750000Y-73400395D01*
X164764143Y-73386253D01*
X164943748Y-73565858D01*
X164929605Y-73580000D01*
X165721930Y-74372325D01*
X165962931Y-74304265D01*
X166126141Y-73845725D01*
X166130195Y-73925538D01*
X166287069Y-74304265D01*
X166528070Y-74372325D01*
X167320395Y-73580000D01*
X167306253Y-73565858D01*
X167485858Y-73386253D01*
X167500000Y-73400395D01*
X167514143Y-73386253D01*
X167693748Y-73565858D01*
X167679605Y-73580000D01*
X167693748Y-73594143D01*
X167514143Y-73773748D01*
X167500000Y-73759605D01*
X166707675Y-74551930D01*
X166775735Y-74792931D01*
X167295034Y-74977767D01*
X167845538Y-74949805D01*
X168165000Y-74817479D01*
X168165000Y-89840000D01*
X168228561Y-90159541D01*
X168303329Y-90271439D01*
X168409566Y-90430434D01*
X171312995Y-93333863D01*
X171275794Y-93423453D01*
X171275226Y-94073694D01*
X171523538Y-94674655D01*
X171982927Y-95134846D01*
X172583453Y-95384206D01*
X173233694Y-95384774D01*
X173790000Y-95154913D01*
X173790000Y-114040000D01*
X167727470Y-114040000D01*
X167739440Y-113979820D01*
X167739440Y-111780180D01*
X167690157Y-111532415D01*
X167549809Y-111322371D01*
X167339765Y-111182023D01*
X167092000Y-111132740D01*
X165568000Y-111132740D01*
X165495000Y-111147260D01*
X165495000Y-98923507D01*
X165584655Y-98886462D01*
X166044846Y-98427073D01*
X166294206Y-97826547D01*
X166294774Y-97176306D01*
X166046462Y-96575345D01*
X165587073Y-96115154D01*
X165495000Y-96076922D01*
X165495000Y-90923507D01*
X165584655Y-90886462D01*
X166044846Y-90427073D01*
X166294206Y-89826547D01*
X166294774Y-89176306D01*
X166046462Y-88575345D01*
X165587073Y-88115154D01*
X165495000Y-88076922D01*
X165495000Y-83423507D01*
X165584655Y-83386462D01*
X166044846Y-82927073D01*
X166294206Y-82326547D01*
X166294774Y-81676306D01*
X166046462Y-81075345D01*
X165587073Y-80615154D01*
X164986547Y-80365794D01*
X164336306Y-80365226D01*
X163735345Y-80613538D01*
X163275154Y-81072927D01*
X163025794Y-81673453D01*
X163025226Y-82323694D01*
X163273538Y-82924655D01*
X163732927Y-83384846D01*
X163825000Y-83423078D01*
X163825000Y-84513339D01*
X163677073Y-84365154D01*
X163076547Y-84115794D01*
X162426306Y-84115226D01*
X161825345Y-84363538D01*
X161365154Y-84822927D01*
X161326922Y-84915000D01*
X159590000Y-84915000D01*
X159270459Y-84978561D01*
X158999566Y-85159566D01*
X155735256Y-88423876D01*
X155427073Y-88115154D01*
X154826547Y-87865794D01*
X154176306Y-87865226D01*
X154084166Y-87903298D01*
X152670434Y-86489566D01*
X152399541Y-86308561D01*
X152231947Y-86275224D01*
X152109635Y-86092172D01*
X151674394Y-85801353D01*
X151739761Y-85782059D01*
X152165450Y-85438026D01*
X152427080Y-84957277D01*
X152442040Y-84883070D01*
X152319540Y-84667000D01*
X150877000Y-84667000D01*
X150877000Y-84687000D01*
X150623000Y-84687000D01*
X150623000Y-84667000D01*
X149180460Y-84667000D01*
X149057960Y-84883070D01*
X149072920Y-84957277D01*
X149334550Y-85438026D01*
X149760239Y-85782059D01*
X149825606Y-85801353D01*
X149390365Y-86092172D01*
X149087533Y-86545391D01*
X148981193Y-87080000D01*
X149087533Y-87614609D01*
X149390365Y-88067828D01*
X149825606Y-88358647D01*
X149760239Y-88377941D01*
X149334550Y-88721974D01*
X149072920Y-89202723D01*
X149057960Y-89276930D01*
X149180460Y-89493000D01*
X150623000Y-89493000D01*
X150623000Y-89473000D01*
X150877000Y-89473000D01*
X150877000Y-89493000D01*
X152319540Y-89493000D01*
X152442040Y-89276930D01*
X152427080Y-89202723D01*
X152165450Y-88721974D01*
X151739761Y-88377941D01*
X151674394Y-88358647D01*
X151976151Y-88157019D01*
X152902995Y-89083863D01*
X152865794Y-89173453D01*
X152865226Y-89823694D01*
X153113538Y-90424655D01*
X153572927Y-90884846D01*
X154173453Y-91134206D01*
X154823694Y-91134774D01*
X155424655Y-90886462D01*
X155884846Y-90427073D01*
X155930558Y-90316987D01*
X156159541Y-90271439D01*
X156430434Y-90090434D01*
X159935868Y-86585000D01*
X161326493Y-86585000D01*
X161363538Y-86674655D01*
X161822927Y-87134846D01*
X162423453Y-87384206D01*
X163073694Y-87384774D01*
X163674655Y-87136462D01*
X163825000Y-86986379D01*
X163825000Y-88076493D01*
X163735345Y-88113538D01*
X163275154Y-88572927D01*
X163025794Y-89173453D01*
X163025226Y-89823694D01*
X163273538Y-90424655D01*
X163732927Y-90884846D01*
X163825000Y-90923078D01*
X163825000Y-92513339D01*
X163677073Y-92365154D01*
X163076547Y-92115794D01*
X162426306Y-92115226D01*
X161825345Y-92363538D01*
X161365154Y-92822927D01*
X161326922Y-92915000D01*
X158086508Y-92915000D01*
X157766968Y-92978560D01*
X157496074Y-93159566D01*
X155918460Y-94737180D01*
X154845868Y-94737180D01*
X152477310Y-92368622D01*
X152518807Y-92160000D01*
X152412467Y-91625391D01*
X152109635Y-91172172D01*
X151674394Y-90881353D01*
X151739761Y-90862059D01*
X152165450Y-90518026D01*
X152427080Y-90037277D01*
X152442040Y-89963070D01*
X152319540Y-89747000D01*
X150877000Y-89747000D01*
X150877000Y-89767000D01*
X150623000Y-89767000D01*
X150623000Y-89747000D01*
X149180460Y-89747000D01*
X149057960Y-89963070D01*
X149072920Y-90037277D01*
X149334550Y-90518026D01*
X149760239Y-90862059D01*
X149825606Y-90881353D01*
X149390365Y-91172172D01*
X149087533Y-91625391D01*
X148981193Y-92160000D01*
X149087533Y-92694609D01*
X149390365Y-93147828D01*
X149622596Y-93303000D01*
X149523870Y-93303000D01*
X149290481Y-93399673D01*
X149111853Y-93578302D01*
X149015180Y-93811691D01*
X149015180Y-94414250D01*
X149173930Y-94573000D01*
X150623000Y-94573000D01*
X150623000Y-94553000D01*
X150877000Y-94553000D01*
X150877000Y-94573000D01*
X150897000Y-94573000D01*
X150897000Y-94827000D01*
X150877000Y-94827000D01*
X150877000Y-95938250D01*
X151035750Y-96097000D01*
X151976130Y-96097000D01*
X152209519Y-96000327D01*
X152388147Y-95821698D01*
X152484820Y-95588309D01*
X152484820Y-94985750D01*
X152326072Y-94827002D01*
X152484820Y-94827002D01*
X152484820Y-94737868D01*
X153665000Y-95918048D01*
X153665000Y-96076493D01*
X153575345Y-96113538D01*
X153115154Y-96572927D01*
X152865794Y-97173453D01*
X152865226Y-97823694D01*
X153113538Y-98424655D01*
X153572927Y-98884846D01*
X154173453Y-99134206D01*
X154823694Y-99134774D01*
X155424655Y-98886462D01*
X155884846Y-98427073D01*
X156134206Y-97826547D01*
X156134774Y-97176306D01*
X155886462Y-96575345D01*
X155718590Y-96407180D01*
X156264328Y-96407180D01*
X156583869Y-96343619D01*
X156854762Y-96162614D01*
X158432376Y-94585000D01*
X161326493Y-94585000D01*
X161363538Y-94674655D01*
X161822927Y-95134846D01*
X162423453Y-95384206D01*
X163073694Y-95384774D01*
X163674655Y-95136462D01*
X163825000Y-94986379D01*
X163825000Y-96076493D01*
X163735345Y-96113538D01*
X163275154Y-96572927D01*
X163025794Y-97173453D01*
X163025226Y-97823694D01*
X163273538Y-98424655D01*
X163732927Y-98884846D01*
X163825000Y-98923078D01*
X163825000Y-112372000D01*
X163888561Y-112691541D01*
X164069566Y-112962434D01*
X164577565Y-113470434D01*
X164713012Y-113560936D01*
X164848459Y-113651439D01*
X164920560Y-113665781D01*
X164920560Y-113979820D01*
X164932530Y-114040000D01*
X163026482Y-114040000D01*
X148210000Y-100437984D01*
X148210000Y-94985750D01*
X149015180Y-94985750D01*
X149015180Y-95588309D01*
X149111853Y-95821698D01*
X149290481Y-96000327D01*
X149523870Y-96097000D01*
X150464250Y-96097000D01*
X150623000Y-95938250D01*
X150623000Y-94827000D01*
X149173930Y-94827000D01*
X149015180Y-94985750D01*
X148210000Y-94985750D01*
X148210000Y-82000000D01*
X148981193Y-82000000D01*
X149087533Y-82534609D01*
X149390365Y-82987828D01*
X149825606Y-83278647D01*
X149760239Y-83297941D01*
X149334550Y-83641974D01*
X149072920Y-84122723D01*
X149057960Y-84196930D01*
X149180460Y-84413000D01*
X150623000Y-84413000D01*
X150623000Y-84393000D01*
X150877000Y-84393000D01*
X150877000Y-84413000D01*
X152319540Y-84413000D01*
X152442040Y-84196930D01*
X152427080Y-84122723D01*
X152165450Y-83641974D01*
X151739761Y-83297941D01*
X151674394Y-83278647D01*
X152109635Y-82987828D01*
X152211752Y-82835000D01*
X153076493Y-82835000D01*
X153113538Y-82924655D01*
X153572927Y-83384846D01*
X154173453Y-83634206D01*
X154823694Y-83634774D01*
X155424655Y-83386462D01*
X155884846Y-82927073D01*
X155923078Y-82835000D01*
X156250000Y-82835000D01*
X156569541Y-82771439D01*
X156840434Y-82590434D01*
X161095868Y-78335000D01*
X161326493Y-78335000D01*
X161363538Y-78424655D01*
X161822927Y-78884846D01*
X162423453Y-79134206D01*
X163073694Y-79134774D01*
X163674655Y-78886462D01*
X164134846Y-78427073D01*
X164384206Y-77826547D01*
X164384774Y-77176306D01*
X164136462Y-76575345D01*
X163677073Y-76115154D01*
X163076547Y-75865794D01*
X162426306Y-75865226D01*
X161825345Y-76113538D01*
X161365154Y-76572927D01*
X161326922Y-76665000D01*
X160750000Y-76665000D01*
X160430459Y-76728561D01*
X160159566Y-76909566D01*
X155917842Y-81151290D01*
X155886462Y-81075345D01*
X155427073Y-80615154D01*
X154826547Y-80365794D01*
X154176306Y-80365226D01*
X153575345Y-80613538D01*
X153115154Y-81072927D01*
X153076922Y-81165000D01*
X152211752Y-81165000D01*
X152109635Y-81012172D01*
X151656416Y-80709340D01*
X151121807Y-80603000D01*
X150378193Y-80603000D01*
X149843584Y-80709340D01*
X149390365Y-81012172D01*
X149087533Y-81465391D01*
X148981193Y-82000000D01*
X148210000Y-82000000D01*
X148210000Y-74551930D01*
X158957675Y-74551930D01*
X159025735Y-74792931D01*
X159545034Y-74977767D01*
X160095538Y-74949805D01*
X160474265Y-74792931D01*
X160542325Y-74551930D01*
X163957675Y-74551930D01*
X164025735Y-74792931D01*
X164545034Y-74977767D01*
X165095538Y-74949805D01*
X165474265Y-74792931D01*
X165542325Y-74551930D01*
X164750000Y-73759605D01*
X163957675Y-74551930D01*
X160542325Y-74551930D01*
X159750000Y-73759605D01*
X158957675Y-74551930D01*
X148210000Y-74551930D01*
X148210000Y-73375034D01*
X158352233Y-73375034D01*
X158380195Y-73925538D01*
X158537069Y-74304265D01*
X158778070Y-74372325D01*
X159570395Y-73580000D01*
X159929605Y-73580000D01*
X160721930Y-74372325D01*
X160962931Y-74304265D01*
X161147767Y-73784966D01*
X161119805Y-73234462D01*
X160962931Y-72855735D01*
X160721930Y-72787675D01*
X159929605Y-73580000D01*
X159570395Y-73580000D01*
X158778070Y-72787675D01*
X158537069Y-72855735D01*
X158352233Y-73375034D01*
X148210000Y-73375034D01*
X148210000Y-72608070D01*
X158957675Y-72608070D01*
X159750000Y-73400395D01*
X160542325Y-72608070D01*
X160474265Y-72367069D01*
X159954966Y-72182233D01*
X159404462Y-72210195D01*
X159025735Y-72367069D01*
X158957675Y-72608070D01*
X148210000Y-72608070D01*
X148210000Y-64905750D01*
X153249000Y-64905750D01*
X153249000Y-65846130D01*
X153345673Y-66079519D01*
X153524302Y-66258147D01*
X153757691Y-66354820D01*
X154360250Y-66354820D01*
X154519000Y-66196070D01*
X154519000Y-64747000D01*
X153407750Y-64747000D01*
X153249000Y-64905750D01*
X148210000Y-64905750D01*
X148210000Y-63460000D01*
X153249000Y-63460000D01*
X153249000Y-64334250D01*
X153249000Y-64334250D01*
G37*
X153249000Y-64334250D02*
X153407750Y-64493000D01*
X154519000Y-64493000D01*
X154519000Y-64473000D01*
X154773000Y-64473000D01*
X154773000Y-64493000D01*
X154793000Y-64493000D01*
X154793000Y-64747000D01*
X154773000Y-64747000D01*
X154773000Y-66196070D01*
X154931750Y-66354820D01*
X155534309Y-66354820D01*
X155767698Y-66258147D01*
X155946327Y-66079519D01*
X156043000Y-65846130D01*
X156043000Y-65747404D01*
X156198172Y-65979635D01*
X156651391Y-66282467D01*
X157186000Y-66388807D01*
X157720609Y-66282467D01*
X158173828Y-65979635D01*
X158456000Y-65557336D01*
X158738172Y-65979635D01*
X158891000Y-66081752D01*
X158891000Y-67399718D01*
X158576056Y-67714113D01*
X158364671Y-68223184D01*
X158364190Y-68774398D01*
X158574686Y-69283837D01*
X158930719Y-69640492D01*
X158978561Y-69881007D01*
X159043745Y-69978561D01*
X159159566Y-70151900D01*
X161598100Y-72590434D01*
X161868993Y-72771439D01*
X162188534Y-72835000D01*
X163610492Y-72835000D01*
X163537069Y-72855735D01*
X163352233Y-73375034D01*
X163380195Y-73925538D01*
X163537069Y-74304265D01*
X163778070Y-74372325D01*
X164570395Y-73580000D01*
X164556253Y-73565858D01*
X164735858Y-73386253D01*
X164750000Y-73400395D01*
X164764143Y-73386253D01*
X164943748Y-73565858D01*
X164929605Y-73580000D01*
X165721930Y-74372325D01*
X165962931Y-74304265D01*
X166126141Y-73845725D01*
X166130195Y-73925538D01*
X166287069Y-74304265D01*
X166528070Y-74372325D01*
X167320395Y-73580000D01*
X167306253Y-73565858D01*
X167485858Y-73386253D01*
X167500000Y-73400395D01*
X167514143Y-73386253D01*
X167693748Y-73565858D01*
X167679605Y-73580000D01*
X167693748Y-73594143D01*
X167514143Y-73773748D01*
X167500000Y-73759605D01*
X166707675Y-74551930D01*
X166775735Y-74792931D01*
X167295034Y-74977767D01*
X167845538Y-74949805D01*
X168165000Y-74817479D01*
X168165000Y-89840000D01*
X168228561Y-90159541D01*
X168303329Y-90271439D01*
X168409566Y-90430434D01*
X171312995Y-93333863D01*
X171275794Y-93423453D01*
X171275226Y-94073694D01*
X171523538Y-94674655D01*
X171982927Y-95134846D01*
X172583453Y-95384206D01*
X173233694Y-95384774D01*
X173790000Y-95154913D01*
X173790000Y-114040000D01*
X167727470Y-114040000D01*
X167739440Y-113979820D01*
X167739440Y-111780180D01*
X167690157Y-111532415D01*
X167549809Y-111322371D01*
X167339765Y-111182023D01*
X167092000Y-111132740D01*
X165568000Y-111132740D01*
X165495000Y-111147260D01*
X165495000Y-98923507D01*
X165584655Y-98886462D01*
X166044846Y-98427073D01*
X166294206Y-97826547D01*
X166294774Y-97176306D01*
X166046462Y-96575345D01*
X165587073Y-96115154D01*
X165495000Y-96076922D01*
X165495000Y-90923507D01*
X165584655Y-90886462D01*
X166044846Y-90427073D01*
X166294206Y-89826547D01*
X166294774Y-89176306D01*
X166046462Y-88575345D01*
X165587073Y-88115154D01*
X165495000Y-88076922D01*
X165495000Y-83423507D01*
X165584655Y-83386462D01*
X166044846Y-82927073D01*
X166294206Y-82326547D01*
X166294774Y-81676306D01*
X166046462Y-81075345D01*
X165587073Y-80615154D01*
X164986547Y-80365794D01*
X164336306Y-80365226D01*
X163735345Y-80613538D01*
X163275154Y-81072927D01*
X163025794Y-81673453D01*
X163025226Y-82323694D01*
X163273538Y-82924655D01*
X163732927Y-83384846D01*
X163825000Y-83423078D01*
X163825000Y-84513339D01*
X163677073Y-84365154D01*
X163076547Y-84115794D01*
X162426306Y-84115226D01*
X161825345Y-84363538D01*
X161365154Y-84822927D01*
X161326922Y-84915000D01*
X159590000Y-84915000D01*
X159270459Y-84978561D01*
X158999566Y-85159566D01*
X155735256Y-88423876D01*
X155427073Y-88115154D01*
X154826547Y-87865794D01*
X154176306Y-87865226D01*
X154084166Y-87903298D01*
X152670434Y-86489566D01*
X152399541Y-86308561D01*
X152231947Y-86275224D01*
X152109635Y-86092172D01*
X151674394Y-85801353D01*
X151739761Y-85782059D01*
X152165450Y-85438026D01*
X152427080Y-84957277D01*
X152442040Y-84883070D01*
X152319540Y-84667000D01*
X150877000Y-84667000D01*
X150877000Y-84687000D01*
X150623000Y-84687000D01*
X150623000Y-84667000D01*
X149180460Y-84667000D01*
X149057960Y-84883070D01*
X149072920Y-84957277D01*
X149334550Y-85438026D01*
X149760239Y-85782059D01*
X149825606Y-85801353D01*
X149390365Y-86092172D01*
X149087533Y-86545391D01*
X148981193Y-87080000D01*
X149087533Y-87614609D01*
X149390365Y-88067828D01*
X149825606Y-88358647D01*
X149760239Y-88377941D01*
X149334550Y-88721974D01*
X149072920Y-89202723D01*
X149057960Y-89276930D01*
X149180460Y-89493000D01*
X150623000Y-89493000D01*
X150623000Y-89473000D01*
X150877000Y-89473000D01*
X150877000Y-89493000D01*
X152319540Y-89493000D01*
X152442040Y-89276930D01*
X152427080Y-89202723D01*
X152165450Y-88721974D01*
X151739761Y-88377941D01*
X151674394Y-88358647D01*
X151976151Y-88157019D01*
X152902995Y-89083863D01*
X152865794Y-89173453D01*
X152865226Y-89823694D01*
X153113538Y-90424655D01*
X153572927Y-90884846D01*
X154173453Y-91134206D01*
X154823694Y-91134774D01*
X155424655Y-90886462D01*
X155884846Y-90427073D01*
X155930558Y-90316987D01*
X156159541Y-90271439D01*
X156430434Y-90090434D01*
X159935868Y-86585000D01*
X161326493Y-86585000D01*
X161363538Y-86674655D01*
X161822927Y-87134846D01*
X162423453Y-87384206D01*
X163073694Y-87384774D01*
X163674655Y-87136462D01*
X163825000Y-86986379D01*
X163825000Y-88076493D01*
X163735345Y-88113538D01*
X163275154Y-88572927D01*
X163025794Y-89173453D01*
X163025226Y-89823694D01*
X163273538Y-90424655D01*
X163732927Y-90884846D01*
X163825000Y-90923078D01*
X163825000Y-92513339D01*
X163677073Y-92365154D01*
X163076547Y-92115794D01*
X162426306Y-92115226D01*
X161825345Y-92363538D01*
X161365154Y-92822927D01*
X161326922Y-92915000D01*
X158086508Y-92915000D01*
X157766968Y-92978560D01*
X157496074Y-93159566D01*
X155918460Y-94737180D01*
X154845868Y-94737180D01*
X152477310Y-92368622D01*
X152518807Y-92160000D01*
X152412467Y-91625391D01*
X152109635Y-91172172D01*
X151674394Y-90881353D01*
X151739761Y-90862059D01*
X152165450Y-90518026D01*
X152427080Y-90037277D01*
X152442040Y-89963070D01*
X152319540Y-89747000D01*
X150877000Y-89747000D01*
X150877000Y-89767000D01*
X150623000Y-89767000D01*
X150623000Y-89747000D01*
X149180460Y-89747000D01*
X149057960Y-89963070D01*
X149072920Y-90037277D01*
X149334550Y-90518026D01*
X149760239Y-90862059D01*
X149825606Y-90881353D01*
X149390365Y-91172172D01*
X149087533Y-91625391D01*
X148981193Y-92160000D01*
X149087533Y-92694609D01*
X149390365Y-93147828D01*
X149622596Y-93303000D01*
X149523870Y-93303000D01*
X149290481Y-93399673D01*
X149111853Y-93578302D01*
X149015180Y-93811691D01*
X149015180Y-94414250D01*
X149173930Y-94573000D01*
X150623000Y-94573000D01*
X150623000Y-94553000D01*
X150877000Y-94553000D01*
X150877000Y-94573000D01*
X150897000Y-94573000D01*
X150897000Y-94827000D01*
X150877000Y-94827000D01*
X150877000Y-95938250D01*
X151035750Y-96097000D01*
X151976130Y-96097000D01*
X152209519Y-96000327D01*
X152388147Y-95821698D01*
X152484820Y-95588309D01*
X152484820Y-94985750D01*
X152326072Y-94827002D01*
X152484820Y-94827002D01*
X152484820Y-94737868D01*
X153665000Y-95918048D01*
X153665000Y-96076493D01*
X153575345Y-96113538D01*
X153115154Y-96572927D01*
X152865794Y-97173453D01*
X152865226Y-97823694D01*
X153113538Y-98424655D01*
X153572927Y-98884846D01*
X154173453Y-99134206D01*
X154823694Y-99134774D01*
X155424655Y-98886462D01*
X155884846Y-98427073D01*
X156134206Y-97826547D01*
X156134774Y-97176306D01*
X155886462Y-96575345D01*
X155718590Y-96407180D01*
X156264328Y-96407180D01*
X156583869Y-96343619D01*
X156854762Y-96162614D01*
X158432376Y-94585000D01*
X161326493Y-94585000D01*
X161363538Y-94674655D01*
X161822927Y-95134846D01*
X162423453Y-95384206D01*
X163073694Y-95384774D01*
X163674655Y-95136462D01*
X163825000Y-94986379D01*
X163825000Y-96076493D01*
X163735345Y-96113538D01*
X163275154Y-96572927D01*
X163025794Y-97173453D01*
X163025226Y-97823694D01*
X163273538Y-98424655D01*
X163732927Y-98884846D01*
X163825000Y-98923078D01*
X163825000Y-112372000D01*
X163888561Y-112691541D01*
X164069566Y-112962434D01*
X164577565Y-113470434D01*
X164713012Y-113560936D01*
X164848459Y-113651439D01*
X164920560Y-113665781D01*
X164920560Y-113979820D01*
X164932530Y-114040000D01*
X163026482Y-114040000D01*
X148210000Y-100437984D01*
X148210000Y-94985750D01*
X149015180Y-94985750D01*
X149015180Y-95588309D01*
X149111853Y-95821698D01*
X149290481Y-96000327D01*
X149523870Y-96097000D01*
X150464250Y-96097000D01*
X150623000Y-95938250D01*
X150623000Y-94827000D01*
X149173930Y-94827000D01*
X149015180Y-94985750D01*
X148210000Y-94985750D01*
X148210000Y-82000000D01*
X148981193Y-82000000D01*
X149087533Y-82534609D01*
X149390365Y-82987828D01*
X149825606Y-83278647D01*
X149760239Y-83297941D01*
X149334550Y-83641974D01*
X149072920Y-84122723D01*
X149057960Y-84196930D01*
X149180460Y-84413000D01*
X150623000Y-84413000D01*
X150623000Y-84393000D01*
X150877000Y-84393000D01*
X150877000Y-84413000D01*
X152319540Y-84413000D01*
X152442040Y-84196930D01*
X152427080Y-84122723D01*
X152165450Y-83641974D01*
X151739761Y-83297941D01*
X151674394Y-83278647D01*
X152109635Y-82987828D01*
X152211752Y-82835000D01*
X153076493Y-82835000D01*
X153113538Y-82924655D01*
X153572927Y-83384846D01*
X154173453Y-83634206D01*
X154823694Y-83634774D01*
X155424655Y-83386462D01*
X155884846Y-82927073D01*
X155923078Y-82835000D01*
X156250000Y-82835000D01*
X156569541Y-82771439D01*
X156840434Y-82590434D01*
X161095868Y-78335000D01*
X161326493Y-78335000D01*
X161363538Y-78424655D01*
X161822927Y-78884846D01*
X162423453Y-79134206D01*
X163073694Y-79134774D01*
X163674655Y-78886462D01*
X164134846Y-78427073D01*
X164384206Y-77826547D01*
X164384774Y-77176306D01*
X164136462Y-76575345D01*
X163677073Y-76115154D01*
X163076547Y-75865794D01*
X162426306Y-75865226D01*
X161825345Y-76113538D01*
X161365154Y-76572927D01*
X161326922Y-76665000D01*
X160750000Y-76665000D01*
X160430459Y-76728561D01*
X160159566Y-76909566D01*
X155917842Y-81151290D01*
X155886462Y-81075345D01*
X155427073Y-80615154D01*
X154826547Y-80365794D01*
X154176306Y-80365226D01*
X153575345Y-80613538D01*
X153115154Y-81072927D01*
X153076922Y-81165000D01*
X152211752Y-81165000D01*
X152109635Y-81012172D01*
X151656416Y-80709340D01*
X151121807Y-80603000D01*
X150378193Y-80603000D01*
X149843584Y-80709340D01*
X149390365Y-81012172D01*
X149087533Y-81465391D01*
X148981193Y-82000000D01*
X148210000Y-82000000D01*
X148210000Y-74551930D01*
X158957675Y-74551930D01*
X159025735Y-74792931D01*
X159545034Y-74977767D01*
X160095538Y-74949805D01*
X160474265Y-74792931D01*
X160542325Y-74551930D01*
X163957675Y-74551930D01*
X164025735Y-74792931D01*
X164545034Y-74977767D01*
X165095538Y-74949805D01*
X165474265Y-74792931D01*
X165542325Y-74551930D01*
X164750000Y-73759605D01*
X163957675Y-74551930D01*
X160542325Y-74551930D01*
X159750000Y-73759605D01*
X158957675Y-74551930D01*
X148210000Y-74551930D01*
X148210000Y-73375034D01*
X158352233Y-73375034D01*
X158380195Y-73925538D01*
X158537069Y-74304265D01*
X158778070Y-74372325D01*
X159570395Y-73580000D01*
X159929605Y-73580000D01*
X160721930Y-74372325D01*
X160962931Y-74304265D01*
X161147767Y-73784966D01*
X161119805Y-73234462D01*
X160962931Y-72855735D01*
X160721930Y-72787675D01*
X159929605Y-73580000D01*
X159570395Y-73580000D01*
X158778070Y-72787675D01*
X158537069Y-72855735D01*
X158352233Y-73375034D01*
X148210000Y-73375034D01*
X148210000Y-72608070D01*
X158957675Y-72608070D01*
X159750000Y-73400395D01*
X160542325Y-72608070D01*
X160474265Y-72367069D01*
X159954966Y-72182233D01*
X159404462Y-72210195D01*
X159025735Y-72367069D01*
X158957675Y-72608070D01*
X148210000Y-72608070D01*
X148210000Y-64905750D01*
X153249000Y-64905750D01*
X153249000Y-65846130D01*
X153345673Y-66079519D01*
X153524302Y-66258147D01*
X153757691Y-66354820D01*
X154360250Y-66354820D01*
X154519000Y-66196070D01*
X154519000Y-64747000D01*
X153407750Y-64747000D01*
X153249000Y-64905750D01*
X148210000Y-64905750D01*
X148210000Y-63460000D01*
X153249000Y-63460000D01*
X153249000Y-64334250D01*
M02*
