<?xml version="1.0" standalone="no"?>
 <!DOCTYPE svg PUBLIC "-//W3C//DTD SVG 1.1//EN" 
 "http://www.w3.org/Graphics/SVG/1.1/DTD/svg11.dtd"> 
<svg xmlns="http://www.w3.org/2000/svg" version="1.1" 
    width="29.7002cm" height="21.0007cm" viewBox="0 0 116930 82680 ">
<title>SVG Picture created as shapeoko-endstop-F.Cu.svg date 2016/03/10 23:36:52 </title>
  <desc>Picture generated by PCBNEW </desc>
<g style="fill:#000000; fill-opacity:1;stroke:#000000; stroke-opacity:1;
stroke-linecap:round; stroke-linejoin:round; "
 transform="translate(0 0) scale(1 1)">
</g>
<g style="fill:#000000; fill-opacity:0.0; 
stroke:#000000; stroke-width:-0.000393701; stroke-opacity:1; 
stroke-linecap:round; stroke-linejoin:round;">
</g>
<g style="fill:#000000; fill-opacity:0.0; 
stroke:#000000; stroke-width:59.0551; stroke-opacity:1; 
stroke-linecap:round; stroke-linejoin:round;">
<path d="M58070 39665
L64074 47047
" />
<path d="M58070 24704
L68700 24704
" />
<path d="M58070 39665
L58070 24704
" />
<path d="M68700 47047
L64074 47047
" />
<path d="M68700 24704
L68700 47047
" />
</g>
<g style="fill:#000000; fill-opacity:1.0; 
stroke:#000000; stroke-width:0; stroke-opacity:1; 
stroke-linecap:round; stroke-linejoin:round;">
<circle cx="62893.7" cy="26968.5" r="295.5" /> 
</g>
<g style="fill:#000000; fill-opacity:1.0; 
stroke:#000000; stroke-width:39.3701; stroke-opacity:1; 
stroke-linecap:round; stroke-linejoin:round;">
</g>
<g style="fill:#000000; fill-opacity:1.0; 
stroke:#000000; stroke-width:0; stroke-opacity:1; 
stroke-linecap:round; stroke-linejoin:round;">
<circle cx="62893.7" cy="28968.5" r="295.5" /> 
</g>
<g style="fill:#000000; fill-opacity:1.0; 
stroke:#000000; stroke-width:39.3701; stroke-opacity:1; 
stroke-linecap:round; stroke-linejoin:round;">
</g>
<g style="fill:#000000; fill-opacity:1.0; 
stroke:#000000; stroke-width:0; stroke-opacity:1; 
stroke-linecap:round; stroke-linejoin:round;">
<circle cx="64862.2" cy="26968.5" r="295.5" /> 
</g>
<g style="fill:#000000; fill-opacity:1.0; 
stroke:#000000; stroke-width:39.3701; stroke-opacity:1; 
stroke-linecap:round; stroke-linejoin:round;">
</g>
<g style="fill:#000000; fill-opacity:1.0; 
stroke:#000000; stroke-width:0; stroke-opacity:1; 
stroke-linecap:round; stroke-linejoin:round;">
<circle cx="64862.2" cy="28968.5" r="295.5" /> 
</g>
<g style="fill:#000000; fill-opacity:1.0; 
stroke:#000000; stroke-width:39.3701; stroke-opacity:1; 
stroke-linecap:round; stroke-linejoin:round;">
</g>
<g style="fill:#000000; fill-opacity:1.0; 
stroke:#000000; stroke-width:0; stroke-opacity:1; 
stroke-linecap:round; stroke-linejoin:round;">
<circle cx="65944.9" cy="26968.5" r="295.5" /> 
</g>
<g style="fill:#000000; fill-opacity:1.0; 
stroke:#000000; stroke-width:39.3701; stroke-opacity:1; 
stroke-linecap:round; stroke-linejoin:round;">
</g>
<g style="fill:#000000; fill-opacity:1.0; 
stroke:#000000; stroke-width:0; stroke-opacity:1; 
stroke-linecap:round; stroke-linejoin:round;">
<circle cx="65944.9" cy="28968.5" r="295.5" /> 
</g>
<g style="fill:#000000; fill-opacity:1.0; 
stroke:#000000; stroke-width:39.3701; stroke-opacity:1; 
stroke-linecap:round; stroke-linejoin:round;">
</g>
<g style="fill:#000000; fill-opacity:1.0; 
stroke:#000000; stroke-width:0; stroke-opacity:1; 
stroke-linecap:round; stroke-linejoin:round;">
<polyline style="fill-rule:evenodd;"
points="59783,37583
58917,37583
58917,36983
59783,36983
59783,37583
" /> 
</g>
<g style="fill:#000000; fill-opacity:1.0; 
stroke:#000000; stroke-width:600; stroke-opacity:1; 
stroke-linecap:round; stroke-linejoin:round;">
</g>
<g style="fill:#000000; fill-opacity:0.0; 
stroke:#000000; stroke-width:600; stroke-opacity:1; 
stroke-linecap:round; stroke-linejoin:round;">
<path d="M59217 36283
L59483 36283
" />
<path d="M59217 35283
L59483 35283
" />
<path d="M59217 34283
L59483 34283
" />
<path d="M59217 33283
L59483 33283
" />
<path d="M59217 32283
L59483 32283
" />
</g>
<g style="fill:#000000; fill-opacity:0.0; 
stroke:#000000; stroke-width:0; stroke-opacity:1; 
stroke-linecap:round; stroke-linejoin:round;">
</g>
<g style="fill:#000000; fill-opacity:1.0; 
stroke:#000000; stroke-width:0; stroke-opacity:1; 
stroke-linecap:round; stroke-linejoin:round;">
<polyline style="fill-rule:evenodd;"
points="60584,25873
60584,25007
61184,25007
61184,25873
60584,25873
" /> 
</g>
<g style="fill:#000000; fill-opacity:1.0; 
stroke:#000000; stroke-width:600; stroke-opacity:1; 
stroke-linecap:round; stroke-linejoin:round;">
</g>
<g style="fill:#000000; fill-opacity:0.0; 
stroke:#000000; stroke-width:600; stroke-opacity:1; 
stroke-linecap:round; stroke-linejoin:round;">
<path d="M61884 25307
L61884 25573
" />
<path d="M62884 25307
L62884 25573
" />
<path d="M63884 25307
L63884 25573
" />
<path d="M64884 25307
L64884 25573
" />
<path d="M65884 25307
L65884 25573
" />
</g>
<g style="fill:#000000; fill-opacity:0.0; 
stroke:#000000; stroke-width:0; stroke-opacity:1; 
stroke-linecap:round; stroke-linejoin:round;">
</g>
<g style="fill:#000000; fill-opacity:1.0; 
stroke:#000000; stroke-width:0; stroke-opacity:1; 
stroke-linecap:round; stroke-linejoin:round;">
<polyline style="fill-rule:evenodd;"
points="65184,46873
65184,46007
65784,46007
65784,46873
65184,46873
" /> 
<circle cx="60826.8" cy="38385.8" r="393.5" /> 
</g>
<g style="fill:#000000; fill-opacity:1.0; 
stroke:#000000; stroke-width:39.3701; stroke-opacity:1; 
stroke-linecap:round; stroke-linejoin:round;">
</g>
<g style="fill:#000000; fill-opacity:1.0; 
stroke:#000000; stroke-width:0; stroke-opacity:1; 
stroke-linecap:round; stroke-linejoin:round;">
<circle cx="64826.8" cy="38385.8" r="393.5" /> 
</g>
<g style="fill:#000000; fill-opacity:1.0; 
stroke:#000000; stroke-width:39.3701; stroke-opacity:1; 
stroke-linecap:round; stroke-linejoin:round;">
</g>
<g style="fill:#000000; fill-opacity:1.0; 
stroke:#000000; stroke-width:0; stroke-opacity:1; 
stroke-linecap:round; stroke-linejoin:round;">
<circle cx="68074.8" cy="36909.4" r="393.5" /> 
</g>
<g style="fill:#000000; fill-opacity:1.0; 
stroke:#000000; stroke-width:39.3701; stroke-opacity:1; 
stroke-linecap:round; stroke-linejoin:round;">
</g>
<g style="fill:#000000; fill-opacity:1.0; 
stroke:#000000; stroke-width:0; stroke-opacity:1; 
stroke-linecap:round; stroke-linejoin:round;">
<circle cx="64074.8" cy="36909.4" r="393.5" /> 
</g>
<g style="fill:#000000; fill-opacity:1.0; 
stroke:#000000; stroke-width:39.3701; stroke-opacity:1; 
stroke-linecap:round; stroke-linejoin:round;">
</g>
<g style="fill:#000000; fill-opacity:1.0; 
stroke:#000000; stroke-width:0; stroke-opacity:1; 
stroke-linecap:round; stroke-linejoin:round;">
<circle cx="60826.8" cy="35236.2" r="393.5" /> 
</g>
<g style="fill:#000000; fill-opacity:1.0; 
stroke:#000000; stroke-width:39.3701; stroke-opacity:1; 
stroke-linecap:round; stroke-linejoin:round;">
</g>
<g style="fill:#000000; fill-opacity:1.0; 
stroke:#000000; stroke-width:0; stroke-opacity:1; 
stroke-linecap:round; stroke-linejoin:round;">
<circle cx="64826.8" cy="35236.2" r="393.5" /> 
</g>
<g style="fill:#000000; fill-opacity:1.0; 
stroke:#000000; stroke-width:39.3701; stroke-opacity:1; 
stroke-linecap:round; stroke-linejoin:round;">
</g>
<g style="fill:#000000; fill-opacity:1.0; 
stroke:#000000; stroke-width:0; stroke-opacity:1; 
stroke-linecap:round; stroke-linejoin:round;">
<circle cx="68074.8" cy="33759.8" r="393.5" /> 
</g>
<g style="fill:#000000; fill-opacity:1.0; 
stroke:#000000; stroke-width:39.3701; stroke-opacity:1; 
stroke-linecap:round; stroke-linejoin:round;">
</g>
<g style="fill:#000000; fill-opacity:1.0; 
stroke:#000000; stroke-width:0; stroke-opacity:1; 
stroke-linecap:round; stroke-linejoin:round;">
<circle cx="64074.8" cy="33759.8" r="393.5" /> 
</g>
<g style="fill:#000000; fill-opacity:1.0; 
stroke:#000000; stroke-width:39.3701; stroke-opacity:1; 
stroke-linecap:round; stroke-linejoin:round;">
</g>
<g style="fill:#000000; fill-opacity:1.0; 
stroke:#000000; stroke-width:0; stroke-opacity:1; 
stroke-linecap:round; stroke-linejoin:round;">
<circle cx="60826.8" cy="32283.5" r="393.5" /> 
</g>
<g style="fill:#000000; fill-opacity:1.0; 
stroke:#000000; stroke-width:39.3701; stroke-opacity:1; 
stroke-linecap:round; stroke-linejoin:round;">
</g>
<g style="fill:#000000; fill-opacity:1.0; 
stroke:#000000; stroke-width:0; stroke-opacity:1; 
stroke-linecap:round; stroke-linejoin:round;">
<circle cx="64826.8" cy="32283.5" r="393.5" /> 
</g>
<g style="fill:#000000; fill-opacity:1.0; 
stroke:#000000; stroke-width:39.3701; stroke-opacity:1; 
stroke-linecap:round; stroke-linejoin:round;">
</g>
<g style="fill:#000000; fill-opacity:1.0; 
stroke:#000000; stroke-width:0; stroke-opacity:1; 
stroke-linecap:round; stroke-linejoin:round;">
<circle cx="68074.8" cy="30511.8" r="393.5" /> 
</g>
<g style="fill:#000000; fill-opacity:1.0; 
stroke:#000000; stroke-width:39.3701; stroke-opacity:1; 
stroke-linecap:round; stroke-linejoin:round;">
</g>
<g style="fill:#000000; fill-opacity:1.0; 
stroke:#000000; stroke-width:0; stroke-opacity:1; 
stroke-linecap:round; stroke-linejoin:round;">
<circle cx="64074.8" cy="30511.8" r="393.5" /> 
</g>
<g style="fill:#000000; fill-opacity:1.0; 
stroke:#000000; stroke-width:39.3701; stroke-opacity:1; 
stroke-linecap:round; stroke-linejoin:round;">
</g>
<g style="fill:#000000; fill-opacity:1.0; 
stroke:#000000; stroke-width:157.48; stroke-opacity:1; 
stroke-linecap:round; stroke-linejoin:round;">
</g>
<g style="fill:#000000; fill-opacity:0.0; 
stroke:#000000; stroke-width:157.48; stroke-opacity:1; 
stroke-linecap:round; stroke-linejoin:round;">
<path d="M62893 26968
L62893 27386
" />
<path d="M62893 27386
L63853 28346
" />
<path d="M63853 28346
L66141 28346
" />
<path d="M66141 28346
L66535 28740
" />
<path d="M66535 28740
L66535 35370
" />
<path d="M66535 35370
L68074 36909
" />
<path d="M62884 25440
L62884 26959
" />
<path d="M62884 26959
L62893 26968
" />
<path d="M64862 28968
L65944 28968
" />
<path d="M62893 28968
L64862 28968
" />
<path d="M60884 25440
L60884 26959
" />
<path d="M60884 26959
L62893 28968
" />
<path d="M58366 34432
L58366 36432
" />
<path d="M58366 36432
L59217 37283
" />
<path d="M59217 37283
L59350 37283
" />
<path d="M58366 32432
L58366 34432
" />
<path d="M58366 34432
L59217 35283
" />
<path d="M59217 35283
L59350 35283
" />
<path d="M60884 25440
L60884 26031
" />
<path d="M60884 26031
L58366 28549
" />
<path d="M58366 28549
L58366 32432
" />
<path d="M58366 32432
L59217 33283
" />
<path d="M59217 33283
L59350 33283
" />
<path d="M60884 25440
L60884 25573
" />
<path d="M66929 28543
L66929 32086
" />
<path d="M66929 32086
L66929 32381
" />
<path d="M68074 33759
L66929 32614
" />
<path d="M66929 32614
L66929 32086
" />
<path d="M66240 27854
L66929 28543
" />
<path d="M65330 27854
L66240 27854
" />
<path d="M64862 26968
L64862 27386
" />
<path d="M64862 27386
L65330 27854
" />
<path d="M64884 25440
L64884 26946
" />
<path d="M64884 26946
L64862 26968
" />
<path d="M65944 26968
L68074 29098
" />
<path d="M68074 29098
L68074 30511
" />
<path d="M65884 25440
L65884 26907
" />
<path d="M65884 26907
L65944 26968
" />
<path d="M62795 36909
L64074 36909
" />
<path d="M62795 36909
L62238 36909
" />
<path d="M62238 36909
L61521 37626
" />
<path d="M61521 37626
L60826 37626
" />
<path d="M60826 38385
L60826 37626
" />
<path d="M60826 37626
L59483 36283
" />
<path d="M59483 36283
L59350 36283
" />
<path d="M62830 33759
L64074 33759
" />
<path d="M62830 33759
L61354 35236
" />
<path d="M61354 35236
L60826 35236
" />
<path d="M59350 34283
L59874 34283
" />
<path d="M59874 34283
L60433 34842
" />
<path d="M60433 34842
L60826 35236
" />
<path d="M63287 30511
L64074 30511
" />
<path d="M60826 32283
L61515 32283
" />
<path d="M61515 32283
L63287 30511
" />
<path d="M59350 32283
L60826 32283
" />
<path d="M64826 32283
L64826 45650
" />
<path d="M64826 45650
L65484 46307
" />
<path d="M65484 46307
L65484 46440
" />
</g>
<g style="fill:#000000; fill-opacity:1.0; 
stroke:#000000; stroke-width:100; stroke-opacity:1; 
stroke-linecap:round; stroke-linejoin:round;">
<polyline style="fill-rule:evenodd;"
points="60334,25328
60396,25390
60834,25390
60834,25383
60934,25383
60934,25390
60942,25390
60942,25490
60934,25490
60934,26061
60996,26123
61233,26123
61325,26085
61396,26015
61434,25923
61434,25884
61495,25976
61673,26095
61884,26137
62094,26095
62273,25976
62384,25809
62495,25976
62555,26016
62555,26535
62431,26659
62348,26859
62348,27076
62430,27277
62571,27417
62589,27512
62615,27550
62661,27618
63621,28578
63727,28650
63853,28675
64413,28675
64384,28683
64311,28887
64322,29104
64384,29253
64479,29280
64791,28968
64785,28962
64856,28892
64862,28897
64867,28892
64938,28962
64932,28968
65244,29280
65339,29253
65403,29073
65405,29104
65467,29253
65562,29280
65874,28968
65868,28962
65939,28892
65944,28897
65950,28892
66021,28962
66015,28968
66021,28974
65950,29044
65944,29039
65632,29351
65659,29446
65864,29518
66080,29507
66206,29455
66206,35370
66231,35495
66261,35539
66302,35602
67446,36745
67431,36780
67431,37036
67528,37273
67709,37454
67946,37552
68202,37553
68421,37462
68421,46767
66039,46767
66039,46007
66019,45910
65964,45827
65881,45772
65784,45753
65394,45753
65155,45514
65155,38946
65190,38931
65371,38750
65470,38514
65470,38258
65372,38021
65191,37840
65155,37825
65155,35796
65190,35782
65371,35601
65470,35364
65470,35108
65372,34872
65191,34691
65155,34675
65155,32843
65190,32829
65371,32648
65470,32412
65470,32156
65372,31919
65191,31738
64955,31640
64699,31639
64462,31737
64281,31918
64183,32154
64183,32410
64280,32647
64461,32828
64498,32843
64498,33272
64439,33214
64203,33116
63947,33116
63710,33213
63529,33394
63514,33431
62830,33431
62704,33456
62598,33527
61313,34812
61191,34691
60955,34592
60699,34592
60663,34607
60106,34051
59999,33979
59933,33966
59885,33894
59714,33780
59740,33772
59907,33637
60010,33447
60016,33418
59968,33333
59400,33333
59400,33341
59300,33341
59300,33333
58732,33333
58684,33418
58690,33447
58793,33637
58960,33772
58986,33780
58815,33894
58695,34072
58654,34283
58695,34493
58815,34672
58986,34786
58960,34794
58793,34929
58690,35119
58684,35148
58732,35233
59300,35233
59300,35225
59400,35225
59400,35233
59968,35233
60016,35148
60010,35119
59907,34929
59740,34794
59714,34786
59833,34707
60198,35072
60183,35107
60183,35363
60280,35600
60461,35781
60698,35879
60954,35879
61190,35782
61371,35601
61389,35557
61480,35539
61586,35468
62966,34088
63514,34088
63528,34123
63709,34305
63946,34403
64202,34403
64438,34305
64498,34246
64498,34675
64462,34690
64281,34871
64183,35107
64183,35363
64280,35600
64461,35781
64498,35796
64498,36422
64439,36364
64203,36266
63947,36265
63710,36363
63529,36544
63514,36580
62238,36580
62112,36605
62006,36676
61385,37298
60962,37298
60030,36365
60046,36283
60004,36072
59885,35894
59714,35780
59740,35772
59907,35637
60010,35447
60016,35418
59968,35333
59400,35333
59400,35341
59300,35341
59300,35333
58732,35333
58684,35418
58690,35447
58793,35637
58960,35772
58986,35780
58815,35894
58695,36072
58654,36283
58695,36493
58815,36672
58906,36733
58867,36733
58775,36771
58705,36841
58667,36933
58667,37170
58729,37233
59300,37233
59300,37225
59400,37225
59400,37233
59408,37233
59408,37333
59400,37333
59400,37770
59462,37833
59833,37833
59925,37795
59995,37725
60033,37633
60033,37395
59970,37333
60033,37333
60033,37298
60498,37763
60498,37825
60462,37839
60281,38020
60183,38257
60183,38513
60280,38749
60461,38931
60698,39029
60954,39029
61190,38931
61371,38750
61470,38514
61470,38258
61372,38021
61306,37955
61521,37955
61647,37930
61753,37859
62374,37238
63514,37238
63528,37273
63709,37454
63946,37552
64202,37553
64438,37455
64498,37396
64498,37825
64462,37839
64281,38020
64183,38257
64183,38513
64280,38749
64461,38931
64498,38946
64498,45650
64523,45776
64557,45827
64594,45882
64929,46217
64929,46767
64207,46767
58350,39566
58350,37395
58667,37395
58667,37633
58705,37725
58775,37795
58867,37833
59237,37833
59300,37770
59300,37333
58729,37333
58667,37395
58350,37395
58350,32283
58654,32283
58695,32493
58815,32672
58986,32786
58960,32794
58793,32929
58690,33119
58684,33148
58732,33233
59300,33233
59300,33225
59400,33225
59400,33233
59968,33233
60016,33148
60010,33119
59907,32929
59740,32794
59714,32786
59885,32672
59925,32612
60266,32612
60280,32647
60461,32828
60698,32926
60954,32927
61190,32829
61371,32648
61387,32612
61515,32612
61641,32587
61748,32515
63423,30840
63514,30840
63528,30875
63709,31057
63946,31155
64202,31155
64438,31057
64620,30876
64718,30640
64718,30384
64620,30147
64439,29966
64203,29868
63947,29868
63710,29965
63529,30146
63514,30183
63287,30183
63161,30208
63054,30279
61384,31949
61372,31919
61191,31738
60955,31640
60699,31639
60462,31737
60281,31918
60266,31954
59925,31954
59885,31894
59707,31775
59496,31733
59204,31733
58993,31775
58815,31894
58695,32072
58654,32283
58350,32283
58350,29351
62581,29351
62608,29446
62813,29518
63029,29507
63178,29446
63205,29351
64550,29351
64577,29446
64781,29518
64998,29507
65147,29446
65174,29351
64862,29039
64550,29351
63205,29351
62893,29039
62581,29351
58350,29351
58350,28887
62343,28887
62354,29104
62416,29253
62511,29280
62822,28968
62964,28968
63276,29280
63371,29253
63444,29049
63432,28832
63371,28683
63276,28656
62964,28968
62822,28968
62511,28656
62416,28683
62343,28887
58350,28887
58350,28585
62581,28585
62893,28897
63205,28585
63178,28490
62974,28418
62757,28429
62608,28490
62581,28585
58350,28585
58350,25553
60334,25553
60334,25923
60372,26015
60442,26085
60534,26123
60771,26123
60834,26061
60834,25490
60396,25490
60334,25553
58350,25553
58350,24984
60334,24984
60334,25328
" /> 
</g>
<g style="fill:#FFFFFF; fill-opacity:1.0; 
stroke:#FFFFFF; stroke-width:100; stroke-opacity:1; 
stroke-linecap:round; stroke-linejoin:round;">
</g>
<g style="fill:#FFFFFF; fill-opacity:1.0; 
stroke:#FFFFFF; stroke-width:0; stroke-opacity:1; 
stroke-linecap:round; stroke-linejoin:round;">
<circle cx="62893.7" cy="26968.5" r="68.8976" /> 
</g>
<g style="fill:#FFFFFF; fill-opacity:1.0; 
stroke:#FFFFFF; stroke-width:39.3701; stroke-opacity:1; 
stroke-linecap:round; stroke-linejoin:round;">
</g>
<g style="fill:#FFFFFF; fill-opacity:1.0; 
stroke:#FFFFFF; stroke-width:0; stroke-opacity:1; 
stroke-linecap:round; stroke-linejoin:round;">
<circle cx="62893.7" cy="28968.5" r="68.8976" /> 
</g>
<g style="fill:#FFFFFF; fill-opacity:1.0; 
stroke:#FFFFFF; stroke-width:39.3701; stroke-opacity:1; 
stroke-linecap:round; stroke-linejoin:round;">
</g>
<g style="fill:#FFFFFF; fill-opacity:1.0; 
stroke:#FFFFFF; stroke-width:0; stroke-opacity:1; 
stroke-linecap:round; stroke-linejoin:round;">
<circle cx="64862.2" cy="26968.5" r="68.8976" /> 
</g>
<g style="fill:#FFFFFF; fill-opacity:1.0; 
stroke:#FFFFFF; stroke-width:39.3701; stroke-opacity:1; 
stroke-linecap:round; stroke-linejoin:round;">
</g>
<g style="fill:#FFFFFF; fill-opacity:1.0; 
stroke:#FFFFFF; stroke-width:0; stroke-opacity:1; 
stroke-linecap:round; stroke-linejoin:round;">
<circle cx="64862.2" cy="28968.5" r="68.8976" /> 
</g>
<g style="fill:#FFFFFF; fill-opacity:1.0; 
stroke:#FFFFFF; stroke-width:39.3701; stroke-opacity:1; 
stroke-linecap:round; stroke-linejoin:round;">
</g>
<g style="fill:#FFFFFF; fill-opacity:1.0; 
stroke:#FFFFFF; stroke-width:0; stroke-opacity:1; 
stroke-linecap:round; stroke-linejoin:round;">
<circle cx="65944.9" cy="26968.5" r="68.8976" /> 
</g>
<g style="fill:#FFFFFF; fill-opacity:1.0; 
stroke:#FFFFFF; stroke-width:39.3701; stroke-opacity:1; 
stroke-linecap:round; stroke-linejoin:round;">
</g>
<g style="fill:#FFFFFF; fill-opacity:1.0; 
stroke:#FFFFFF; stroke-width:0; stroke-opacity:1; 
stroke-linecap:round; stroke-linejoin:round;">
<circle cx="65944.9" cy="28968.5" r="68.8976" /> 
</g>
<g style="fill:#FFFFFF; fill-opacity:1.0; 
stroke:#FFFFFF; stroke-width:39.3701; stroke-opacity:1; 
stroke-linecap:round; stroke-linejoin:round;">
</g>
<g style="fill:#FFFFFF; fill-opacity:1.0; 
stroke:#FFFFFF; stroke-width:0; stroke-opacity:1; 
stroke-linecap:round; stroke-linejoin:round;">
<circle cx="59350.4" cy="37283.5" r="68.8976" /> 
</g>
<g style="fill:#FFFFFF; fill-opacity:1.0; 
stroke:#FFFFFF; stroke-width:39.3701; stroke-opacity:1; 
stroke-linecap:round; stroke-linejoin:round;">
</g>
<g style="fill:#FFFFFF; fill-opacity:1.0; 
stroke:#FFFFFF; stroke-width:0; stroke-opacity:1; 
stroke-linecap:round; stroke-linejoin:round;">
<circle cx="59350.4" cy="36283.5" r="68.8976" /> 
</g>
<g style="fill:#FFFFFF; fill-opacity:1.0; 
stroke:#FFFFFF; stroke-width:39.3701; stroke-opacity:1; 
stroke-linecap:round; stroke-linejoin:round;">
</g>
<g style="fill:#FFFFFF; fill-opacity:1.0; 
stroke:#FFFFFF; stroke-width:0; stroke-opacity:1; 
stroke-linecap:round; stroke-linejoin:round;">
<circle cx="59350.4" cy="35283.5" r="68.8976" /> 
</g>
<g style="fill:#FFFFFF; fill-opacity:1.0; 
stroke:#FFFFFF; stroke-width:39.3701; stroke-opacity:1; 
stroke-linecap:round; stroke-linejoin:round;">
</g>
<g style="fill:#FFFFFF; fill-opacity:1.0; 
stroke:#FFFFFF; stroke-width:0; stroke-opacity:1; 
stroke-linecap:round; stroke-linejoin:round;">
<circle cx="59350.4" cy="34283.5" r="68.8976" /> 
</g>
<g style="fill:#FFFFFF; fill-opacity:1.0; 
stroke:#FFFFFF; stroke-width:39.3701; stroke-opacity:1; 
stroke-linecap:round; stroke-linejoin:round;">
</g>
<g style="fill:#FFFFFF; fill-opacity:1.0; 
stroke:#FFFFFF; stroke-width:0; stroke-opacity:1; 
stroke-linecap:round; stroke-linejoin:round;">
<circle cx="59350.4" cy="33283.5" r="68.8976" /> 
</g>
<g style="fill:#FFFFFF; fill-opacity:1.0; 
stroke:#FFFFFF; stroke-width:39.3701; stroke-opacity:1; 
stroke-linecap:round; stroke-linejoin:round;">
</g>
<g style="fill:#FFFFFF; fill-opacity:1.0; 
stroke:#FFFFFF; stroke-width:0; stroke-opacity:1; 
stroke-linecap:round; stroke-linejoin:round;">
<circle cx="59350.4" cy="32283.5" r="68.8976" /> 
</g>
<g style="fill:#FFFFFF; fill-opacity:1.0; 
stroke:#FFFFFF; stroke-width:39.3701; stroke-opacity:1; 
stroke-linecap:round; stroke-linejoin:round;">
</g>
<g style="fill:#FFFFFF; fill-opacity:1.0; 
stroke:#FFFFFF; stroke-width:0; stroke-opacity:1; 
stroke-linecap:round; stroke-linejoin:round;">
<circle cx="60884.3" cy="25440.9" r="68.8976" /> 
</g>
<g style="fill:#FFFFFF; fill-opacity:1.0; 
stroke:#FFFFFF; stroke-width:39.3701; stroke-opacity:1; 
stroke-linecap:round; stroke-linejoin:round;">
</g>
<g style="fill:#FFFFFF; fill-opacity:1.0; 
stroke:#FFFFFF; stroke-width:0; stroke-opacity:1; 
stroke-linecap:round; stroke-linejoin:round;">
<circle cx="61884.3" cy="25440.9" r="68.8976" /> 
</g>
<g style="fill:#FFFFFF; fill-opacity:1.0; 
stroke:#FFFFFF; stroke-width:39.3701; stroke-opacity:1; 
stroke-linecap:round; stroke-linejoin:round;">
</g>
<g style="fill:#FFFFFF; fill-opacity:1.0; 
stroke:#FFFFFF; stroke-width:0; stroke-opacity:1; 
stroke-linecap:round; stroke-linejoin:round;">
<circle cx="62884.3" cy="25440.9" r="68.8976" /> 
</g>
<g style="fill:#FFFFFF; fill-opacity:1.0; 
stroke:#FFFFFF; stroke-width:39.3701; stroke-opacity:1; 
stroke-linecap:round; stroke-linejoin:round;">
</g>
<g style="fill:#FFFFFF; fill-opacity:1.0; 
stroke:#FFFFFF; stroke-width:0; stroke-opacity:1; 
stroke-linecap:round; stroke-linejoin:round;">
<circle cx="63884.3" cy="25440.9" r="68.8976" /> 
</g>
<g style="fill:#FFFFFF; fill-opacity:1.0; 
stroke:#FFFFFF; stroke-width:39.3701; stroke-opacity:1; 
stroke-linecap:round; stroke-linejoin:round;">
</g>
<g style="fill:#FFFFFF; fill-opacity:1.0; 
stroke:#FFFFFF; stroke-width:0; stroke-opacity:1; 
stroke-linecap:round; stroke-linejoin:round;">
<circle cx="64884.3" cy="25440.9" r="68.8976" /> 
</g>
<g style="fill:#FFFFFF; fill-opacity:1.0; 
stroke:#FFFFFF; stroke-width:39.3701; stroke-opacity:1; 
stroke-linecap:round; stroke-linejoin:round;">
</g>
<g style="fill:#FFFFFF; fill-opacity:1.0; 
stroke:#FFFFFF; stroke-width:0; stroke-opacity:1; 
stroke-linecap:round; stroke-linejoin:round;">
<circle cx="65884.3" cy="25440.9" r="68.8976" /> 
</g>
<g style="fill:#FFFFFF; fill-opacity:1.0; 
stroke:#FFFFFF; stroke-width:39.3701; stroke-opacity:1; 
stroke-linecap:round; stroke-linejoin:round;">
</g>
<g style="fill:#FFFFFF; fill-opacity:1.0; 
stroke:#FFFFFF; stroke-width:0; stroke-opacity:1; 
stroke-linecap:round; stroke-linejoin:round;">
<circle cx="65484.3" cy="46440.9" r="68.8976" /> 
</g>
<g style="fill:#FFFFFF; fill-opacity:1.0; 
stroke:#FFFFFF; stroke-width:39.3701; stroke-opacity:1; 
stroke-linecap:round; stroke-linejoin:round;">
</g>
<g style="fill:#FFFFFF; fill-opacity:1.0; 
stroke:#FFFFFF; stroke-width:0; stroke-opacity:1; 
stroke-linecap:round; stroke-linejoin:round;">
<circle cx="60826.8" cy="38385.8" r="68.8976" /> 
</g>
<g style="fill:#FFFFFF; fill-opacity:1.0; 
stroke:#FFFFFF; stroke-width:39.3701; stroke-opacity:1; 
stroke-linecap:round; stroke-linejoin:round;">
</g>
<g style="fill:#FFFFFF; fill-opacity:1.0; 
stroke:#FFFFFF; stroke-width:0; stroke-opacity:1; 
stroke-linecap:round; stroke-linejoin:round;">
<circle cx="64826.8" cy="38385.8" r="68.8976" /> 
</g>
<g style="fill:#FFFFFF; fill-opacity:1.0; 
stroke:#FFFFFF; stroke-width:39.3701; stroke-opacity:1; 
stroke-linecap:round; stroke-linejoin:round;">
</g>
<g style="fill:#FFFFFF; fill-opacity:1.0; 
stroke:#FFFFFF; stroke-width:0; stroke-opacity:1; 
stroke-linecap:round; stroke-linejoin:round;">
<circle cx="68074.8" cy="36909.4" r="68.8976" /> 
</g>
<g style="fill:#FFFFFF; fill-opacity:1.0; 
stroke:#FFFFFF; stroke-width:39.3701; stroke-opacity:1; 
stroke-linecap:round; stroke-linejoin:round;">
</g>
<g style="fill:#FFFFFF; fill-opacity:1.0; 
stroke:#FFFFFF; stroke-width:0; stroke-opacity:1; 
stroke-linecap:round; stroke-linejoin:round;">
<circle cx="64074.8" cy="36909.4" r="68.8976" /> 
</g>
<g style="fill:#FFFFFF; fill-opacity:1.0; 
stroke:#FFFFFF; stroke-width:39.3701; stroke-opacity:1; 
stroke-linecap:round; stroke-linejoin:round;">
</g>
<g style="fill:#FFFFFF; fill-opacity:1.0; 
stroke:#FFFFFF; stroke-width:0; stroke-opacity:1; 
stroke-linecap:round; stroke-linejoin:round;">
<circle cx="60826.8" cy="35236.2" r="68.8976" /> 
</g>
<g style="fill:#FFFFFF; fill-opacity:1.0; 
stroke:#FFFFFF; stroke-width:39.3701; stroke-opacity:1; 
stroke-linecap:round; stroke-linejoin:round;">
</g>
<g style="fill:#FFFFFF; fill-opacity:1.0; 
stroke:#FFFFFF; stroke-width:0; stroke-opacity:1; 
stroke-linecap:round; stroke-linejoin:round;">
<circle cx="64826.8" cy="35236.2" r="68.8976" /> 
</g>
<g style="fill:#FFFFFF; fill-opacity:1.0; 
stroke:#FFFFFF; stroke-width:39.3701; stroke-opacity:1; 
stroke-linecap:round; stroke-linejoin:round;">
</g>
<g style="fill:#FFFFFF; fill-opacity:1.0; 
stroke:#FFFFFF; stroke-width:0; stroke-opacity:1; 
stroke-linecap:round; stroke-linejoin:round;">
<circle cx="68074.8" cy="33759.8" r="68.8976" /> 
</g>
<g style="fill:#FFFFFF; fill-opacity:1.0; 
stroke:#FFFFFF; stroke-width:39.3701; stroke-opacity:1; 
stroke-linecap:round; stroke-linejoin:round;">
</g>
<g style="fill:#FFFFFF; fill-opacity:1.0; 
stroke:#FFFFFF; stroke-width:0; stroke-opacity:1; 
stroke-linecap:round; stroke-linejoin:round;">
<circle cx="64074.8" cy="33759.8" r="68.8976" /> 
</g>
<g style="fill:#FFFFFF; fill-opacity:1.0; 
stroke:#FFFFFF; stroke-width:39.3701; stroke-opacity:1; 
stroke-linecap:round; stroke-linejoin:round;">
</g>
<g style="fill:#FFFFFF; fill-opacity:1.0; 
stroke:#FFFFFF; stroke-width:0; stroke-opacity:1; 
stroke-linecap:round; stroke-linejoin:round;">
<circle cx="60826.8" cy="32283.5" r="68.8976" /> 
</g>
<g style="fill:#FFFFFF; fill-opacity:1.0; 
stroke:#FFFFFF; stroke-width:39.3701; stroke-opacity:1; 
stroke-linecap:round; stroke-linejoin:round;">
</g>
<g style="fill:#FFFFFF; fill-opacity:1.0; 
stroke:#FFFFFF; stroke-width:0; stroke-opacity:1; 
stroke-linecap:round; stroke-linejoin:round;">
<circle cx="64826.8" cy="32283.5" r="68.8976" /> 
</g>
<g style="fill:#FFFFFF; fill-opacity:1.0; 
stroke:#FFFFFF; stroke-width:39.3701; stroke-opacity:1; 
stroke-linecap:round; stroke-linejoin:round;">
</g>
<g style="fill:#FFFFFF; fill-opacity:1.0; 
stroke:#FFFFFF; stroke-width:0; stroke-opacity:1; 
stroke-linecap:round; stroke-linejoin:round;">
<circle cx="68074.8" cy="30511.8" r="68.8976" /> 
</g>
<g style="fill:#FFFFFF; fill-opacity:1.0; 
stroke:#FFFFFF; stroke-width:39.3701; stroke-opacity:1; 
stroke-linecap:round; stroke-linejoin:round;">
</g>
<g style="fill:#FFFFFF; fill-opacity:1.0; 
stroke:#FFFFFF; stroke-width:0; stroke-opacity:1; 
stroke-linecap:round; stroke-linejoin:round;">
<circle cx="64074.8" cy="30511.8" r="68.8976" /> 
</g>
<g style="fill:#FFFFFF; fill-opacity:1.0; 
stroke:#FFFFFF; stroke-width:39.3701; stroke-opacity:1; 
stroke-linecap:round; stroke-linejoin:round;">
</g>
<g style="fill:#000000; fill-opacity:1.0; 
stroke:#000000; stroke-width:39.3701; stroke-opacity:1; 
stroke-linecap:round; stroke-linejoin:round;">
</g> 
</svg>
